<svg width="32" height="32" viewBox="0 0 32 32" fill="none" xmlns="http://www.w3.org/2000/svg">
<rect width="32" height="32" rx="16" fill="#47DBA1"/>
<path d="M9.60312 11.73C10.0087 10.6483 10.0345 9.91675 9.86362 9.44672C9.61621 8.76609 8.78411 8.50089 8.2383 8.0249L6.87553 6.83643L21.1987 6.83643C22.6171 6.94281 25.4752 7.87897 25.5603 10.7725C25.6454 13.6661 23.2554 15.0278 22.0497 15.3469C22.8653 15.5951 24.4539 16.8575 24.2837 19.9213C23.7731 23.9212 19.2483 25.0631 17.0498 25.134H6.51807C6.00744 23.0064 7.36911 21.8362 8.11378 21.517H11.0925C12.8797 21.6872 14.5321 19.8149 15.1349 18.8575H17.6881C17.7732 19.8788 17.1562 20.6305 16.837 20.8787H15.3477L14.4966 22.4745H16.6243C20.2838 19.8362 19.993 17.971 19.3902 17.3682C18.7164 17.51 17.22 17.4107 16.6243 15.8788C16.0285 14.3469 16.6597 13.1838 17.0498 12.7938C17.4753 14.0703 18.1136 13.8576 19.4966 14.6023C20.8795 15.3469 21.0923 14.1767 20.7731 13.5384C19.2838 11.3044 18.7519 9.17682 19.071 8.85768C19.3902 8.53854 19.4966 8.00663 18.9647 8.11301C18.4328 8.21939 18.1136 8.75129 16.9434 8.75129C14.2201 8.49598 10.5605 12.5456 9.07121 14.6023C8.92937 14.4959 8.83718 13.7725 9.60312 11.73Z" fill="#F0FFFA"/>
</svg>
