<svg width="256" height="256" viewBox="0 0 256 256" fill="none" xmlns="http://www.w3.org/2000/svg">
<rect width="256" height="256" rx="128" fill="#47DBA1"/>
<path d="M76.825 93.8412C80.0698 85.1882 80.2758 79.3354 78.909 75.5752C76.9297 70.1302 70.2729 68.0085 65.9064 64.2006L55.0042 54.6929L169.589 54.6929C180.937 55.544 203.801 63.0332 204.482 86.1817C205.163 109.33 186.043 120.224 176.398 122.777C182.922 124.763 195.631 134.862 194.27 159.372C190.185 191.371 153.987 200.506 136.398 201.073H52.1445C48.0595 184.052 58.9529 174.691 64.9103 172.138H88.7397C103.037 173.499 116.257 158.521 121.079 150.861H141.505C142.186 159.032 137.249 165.046 134.696 167.031H122.782L115.973 179.797H132.994C162.27 158.691 159.944 143.769 155.121 138.947C149.731 140.081 137.76 139.287 132.994 127.032C128.228 114.777 133.278 105.472 136.398 102.352C139.803 112.564 144.909 110.862 155.973 116.819C167.036 122.777 168.738 113.415 166.185 108.309C154.27 90.437 150.015 73.416 152.568 70.8629C155.121 68.3098 155.973 64.0545 151.717 64.9056C147.462 65.7566 144.909 70.0118 135.547 70.0118C113.76 67.9693 84.4844 100.366 72.5697 116.819C71.435 115.968 70.6974 110.181 76.825 93.8412Z" fill="#F0FFFA"/>
</svg>
