<svg width="128" height="128" viewBox="0 0 128 128" fill="none" xmlns="http://www.w3.org/2000/svg">
<rect width="128" height="128" rx="64" fill="#47DBA1"/>
<path d="M38.4125 46.9208C40.0349 42.5943 40.1379 39.668 39.4545 37.7878C38.4648 35.0653 35.1364 34.0045 32.9532 32.1006L27.5021 27.3467L84.7946 27.3467C90.4683 27.7722 101.901 31.5168 102.241 43.0911C102.582 54.6654 93.0215 60.1121 88.1988 61.3887C91.4612 62.3815 97.8157 67.4311 97.1349 79.6862C95.0923 95.6859 76.9934 100.253 68.1992 100.537H26.0723C24.0297 92.0264 29.4765 87.3456 32.4551 86.0691H44.3698C51.5186 86.7499 58.1284 79.2607 60.5397 75.431H70.7523C71.0928 79.516 68.6247 82.523 67.3481 83.5159H61.3908L57.9866 89.8988H66.4971C81.1351 79.3458 79.972 71.8849 77.5607 69.4736C74.8657 70.041 68.88 69.6438 66.4971 63.5163C64.1142 57.3887 66.6389 52.7363 68.1992 51.1761C69.9013 56.2824 72.4544 55.4313 77.9863 58.41C83.5181 61.3887 84.3691 56.7079 83.0926 54.1547C77.1352 45.2187 75.0076 36.7083 76.2842 35.4317C77.5607 34.1551 77.9863 32.0275 75.8586 32.453C73.731 32.8785 72.4544 35.0061 67.7737 35.0061C56.8802 33.9849 42.2422 50.1832 36.2848 58.41C35.7175 57.9845 35.3487 55.0909 38.4125 46.9208Z" fill="#F0FFFA"/>
</svg>
