<svg width="1024" height="1024" viewBox="0 0 1024 1024" fill="none" xmlns="http://www.w3.org/2000/svg">
<rect width="1024" height="1024" rx="512" fill="#47DBA1"/>
<path d="M307.3 375.366C320.279 340.754 321.103 317.343 315.636 302.302C307.719 280.522 281.091 272.035 263.626 256.803L220.017 218.772L678.357 218.773C723.746 222.177 815.206 252.134 817.929 344.728C820.652 437.322 744.172 480.896 705.591 491.108C731.69 499.051 782.526 539.448 777.079 637.489C760.739 765.486 615.947 802.025 545.594 804.294H208.578C192.238 736.21 235.812 698.764 259.641 688.552H354.959C412.149 693.998 465.028 634.085 484.318 603.447H566.019C568.742 636.127 548.998 660.183 538.785 668.126H491.126L463.893 719.189H531.977C649.081 634.765 639.776 575.078 620.486 555.788C598.926 560.327 551.04 557.15 531.977 508.129C512.913 459.109 533.112 421.89 545.594 409.408C559.21 450.258 579.635 443.45 623.89 467.279C668.145 491.108 674.953 453.662 664.74 433.237C617.082 361.749 600.061 293.665 610.273 283.453C620.486 273.24 623.89 256.219 606.869 259.623C589.848 263.027 579.635 280.048 542.189 280.048C455.042 271.878 337.938 401.465 290.279 467.279C285.74 463.875 282.79 440.726 307.3 375.366Z" fill="#F0FFFA"/>
</svg>
