<svg width="512" height="512" viewBox="0 0 512 512" fill="none" xmlns="http://www.w3.org/2000/svg">
<rect width="512" height="512" rx="256" fill="#47DBA1"/>
<path d="M153.65 187.682C160.14 170.376 160.552 158.671 157.818 151.15C153.859 140.26 140.546 136.017 131.813 128.401L110.008 109.386L339.179 109.386C361.873 111.088 407.603 126.066 408.965 172.363C410.326 218.661 372.086 240.447 352.795 245.554C365.845 249.525 391.263 269.723 388.539 318.744C380.369 382.743 307.973 401.012 272.797 402.147H104.289C96.119 368.105 117.906 349.382 129.821 344.275H177.479C206.075 346.999 232.514 317.042 242.159 301.723H283.009C284.371 318.063 274.499 330.091 269.393 334.063H245.563L231.946 359.594H265.988C324.541 317.382 319.888 287.539 310.243 277.894C299.463 280.163 275.52 278.574 265.988 254.064C256.457 229.554 266.556 210.944 272.797 204.703C279.605 225.128 289.818 221.724 311.945 233.639C334.072 245.554 337.477 226.831 332.37 216.618C308.541 180.874 300.03 146.832 305.137 141.726C310.243 136.62 311.945 128.109 303.435 129.811C294.924 131.513 289.818 140.024 271.095 140.024C227.521 135.939 168.969 200.732 145.139 233.639C142.87 231.937 141.395 220.363 153.65 187.682Z" fill="#F0FFFA"/>
</svg>
