<svg width="64" height="64" viewBox="0 0 64 64" fill="none" xmlns="http://www.w3.org/2000/svg">
<rect width="64" height="64" rx="32" fill="#47DBA1"/>
<path d="M19.2062 23.4604C20.0175 21.2972 20.069 19.834 19.7272 18.8939C19.2324 17.5327 17.5682 17.0023 16.4766 16.0503L13.7511 13.6733L42.3973 13.6734C45.2342 13.8861 50.9504 15.7584 51.1206 21.5456C51.2908 27.3327 46.5107 30.056 44.0994 30.6943C45.7306 31.1908 48.9079 33.7156 48.5674 39.8431C47.5462 47.843 38.4967 50.1266 34.0996 50.2685H13.0361C12.0149 46.0132 14.7382 43.6728 16.2276 43.0345H22.1849C25.7593 43.375 29.0642 39.6303 30.2699 37.7155H35.3762C35.5464 39.758 34.3124 41.2615 33.6741 41.758H30.6954L28.9933 44.9494H33.2485C40.5676 39.6729 39.986 35.9425 38.7804 34.7368C37.4329 35.0205 34.44 34.8219 33.2485 31.7581C32.0571 28.6944 33.3195 26.3682 34.0996 25.588C34.9506 28.1412 36.2272 27.7157 38.9931 29.205C41.759 30.6943 42.1846 28.3539 41.5463 27.0774C38.5676 22.6094 37.5038 18.3541 38.1421 17.7158C38.7804 17.0776 38.9931 16.0137 37.9293 16.2265C36.8655 16.4393 36.2272 17.5031 33.8868 17.5031C28.4401 16.9924 21.1211 25.0916 18.1424 29.205C17.8587 28.9922 17.6744 27.5455 19.2062 23.4604Z" fill="#F0FFFA"/>
</svg>
